<svg viewBox="0 0 460 140" width="460" height="140" xmlns="http://www.w3.org/2000/svg" role="img" aria-label="Fooska wordmark with fossa mark and tagline">
  <g transform="translate(20,25)">
    <rect x="0" y="0" width="90" height="90" rx="21" fill="#C6512F"></rect>
    <g transform="scale(0.9375)">
      <path d="M31 35 C26 25 28 16 35 19 C40 21 41 29 40 36 Z" fill="#FBE4D8"></path>
      <path d="M65 35 C70 25 68 16 61 19 C56 21 55 29 56 36 Z" fill="#FBE4D8"></path>
      <path d="M48 25 C35 25 28 34 28 47 C28 60 36 71 48 79 C60 71 68 60 68 47 C68 34 61 25 48 25 Z" fill="#FBE4D8"></path>
      <ellipse cx="48" cy="63" rx="11" ry="9" fill="#FBF3EC"></ellipse>
      <path d="M36 46 Q40 41 44 46 Q40 50 36 46 Z" fill="#7A3418"></path>
      <path d="M52 46 Q56 41 60 46 Q56 50 52 46 Z" fill="#7A3418"></path>
      <path d="M44 56 Q48 53 52 56 Q48 61 44 56 Z" fill="#7A3418"></path>
      <path d="M48 60 V64 M48 64 Q43 67 40 64 M48 64 Q53 67 56 64" fill="none" stroke="#7A3418" stroke-width="2.4" stroke-linecap="round"></path>
    </g>
  </g>
  <text x="130" y="72" font-family="Georgia, &#39;Times New Roman&#39;, serif" font-size="52" font-weight="500" fill="#7A3418" letter-spacing="1">Fooska</text>
  <text x="132" y="100" font-family="Helvetica, Arial, sans-serif" font-size="17" fill="#C6512F" letter-spacing="0.4">Catch the words worth keeping</text>
</svg>